<svg xmlns="http://www.w3.org/2000/svg" viewBox="0 0 64 32" fill="none"><path fill="#00979D" d="M32 0C20.954 0 10.766 4.97 4.828 13.131.94 18.362.94 24.638 4.828 29.869 10.766 38.03 20.954 43 32 43s21.234-4.97 27.172-13.131c3.888-5.23 3.888-11.507 0-16.738C53.234 4.97 43.046 0 32 0Zm9.52 12.043c1.529 0 2.775 1.246 2.775 2.775s-1.246 2.775-2.775 2.775h-6.82c-1.645 2.63-3.666 4.95-5.967 6.852a21.927 21.927 0 0 1-6.278 3.736 21.94 21.94 0 0 1-6.278-3.736c-2.3-1.902-4.322-4.222-5.966-6.852h-6.82c-1.529 0-2.775-1.246-2.775-2.775s1.246-2.775 2.775-2.775h5.236C9.35 11.4 10.91 10.138 12.54 9.02c3.593-2.442 7.717-3.742 12.027-3.742s8.434 1.3 12.028 3.742c1.63 1.118 3.188 2.38 4.474 3.598Zm-20.233-.36h-3.082V8.6c0-.526-.43-.955-.955-.955h-1.91a.957.957 0 0 0-.956.955v3.082h-3.082a.957.957 0 0 0-.956.956v1.91c0 .526.43.956.956.956h3.082v3.082c0 .526.43.956.956.956h1.91c.525 0 .955-.43.955-.956v-3.082h3.082c.526 0 .956-.43.956-.956v-1.91a.957.957 0 0 0-.956-.956Zm31.336 5.327c-2.524 3.862-6.497 6.758-11.147 8.167 4.65-1.409 8.623-4.305 11.147-8.167Z"/><path fill="#00979D" d="M54.117 11.683h-8.598a.957.957 0 0 0-.956.956v1.91c0 .526.43.956.956.956h8.598a.957.957 0 0 0 .956-.956v-1.91a.957.957 0 0 0-.956-.956Z"/></svg>