<svg viewBox="0 0 64 64" fill="none" xmlns="http://www.w3.org/2000/svg">
<rect width="64" height="64" rx="12" fill="#00599C"/>
<path d="M20.5 32c0-6.351 5.149-11.5 11.5-11.5 3.047 0 5.961 1.215 8.1 3.387l-3.3 3.3c-1.24-1.272-2.9-1.987-4.8-1.987C27.782 25.2 24.5 28.483 24.5 32s3.282 6.8 7.5 6.8c1.9 0 3.56-.715 4.8-1.987l3.3 3.3C37.961 42.785 35.047 44 32 44c-6.351 0-11.5-5.149-11.5-12Z" fill="#FFFFFF"/>
<path d="M45.2 26h3.2v3.2H52v3h-3.6v3.2h-3.2v-3.2H42v-3h3.2V26Z" fill="#FFFFFF"/>
<path d="M45.2 34.8h3.2V38H52v3h-3.6v3.2h-3.2V41H42v-3h3.2v-3.2Z" fill="#FFFFFF"/>
</svg>