<svg viewBox="0 0 24 24" fill="none" xmlns="http://www.w3.org/2000/svg">
<path d="M24,12.073c0,5.989-4.394,10.954-10.13,11.855c-0.846,0.133-1.17-0.333-1.17-0.806c0-0.329,0.012-1.4,0.012-2.737 c0-0.931-0.358-1.548-0.756-1.854c2.484-0.27,5.096-1.11,5.096-5.04c0-1.12-0.358-2.037-1.04-2.748 c0.11-0.27,0.458-1.374-0.122-2.748c0,0-0.88-0.27-2.9,1.026c-0.84-0.23-1.73-0.347-2.623-0.347c-0.893,0-1.783,0.12-2.623,0.347 c-2.22-1.297-2.9-1.026-2.9-1.026c-0.57,1.374-0.232,2.478-0.122,2.748c-0.681,0.711-1.027,1.628-1.027,2.748 c0,3.918,2.612,4.771,5.096,5.04c-0.327,0.283-0.61,0.846-0.725,1.628c-0.652,0.283-2.3,0.81-3.275-0.914 c-0.22-0.434-0.688-0.846-1.378-0.846c-0.844,0-0.34,0.53,0.013,0.725c0.434,0.283,0.915,1.01,1.027,1.417 c0.22,0.434,0.915,1.628,3.054,1.628c0,0.957,0.013,1.88,0.013,2.17c0,0.434-0.297,0.927-1.195,0.792 C4.394,23.025,0,18.061,0,12.073c0-6.645,5.394-12.073,12-12.073S24,5.428,24,12.073z" fill="#181717"/>
</svg>